<?xml version="1.0" encoding="UTF-8"?>
<svg id="poblogo" version="1.1" viewBox="0 0 206 64.8" xmlns="http://www.w3.org/2000/svg" xmlns:osb="http://www.openswatchbook.org/uri/2009/osb">
 <defs>
        <linearGradient id="Gradient" x1="100%" y1="100%">
          <stop offset="0%" stop-color="lightblue" stop-opacity=".5">
            <animate attributeName="stop-color" values="lightblue;blue;red;red;black;red;red;purple;lightblue" dur="14s" repeatCount="indefinite"/>
          </stop>
          <stop offset="100%" stop-color="lightblue" stop-opacity=".5">
            <animate attributeName="stop-color" values="lightblue;orange;purple;purple;black;purple;purple;blue;lightblue" dur="14s" repeatCount="indefinite"/>
            <animate attributeName="offset" values=".95;.80;.60;.40;.20;0;.20;.40;.60;.80;.95" dur="14s" repeatCount="indefinite"/>
          </stop>
        </linearGradient>
</defs>
 <g transform="translate(.0019)">
  <path id="stroke" d="m5.08 0c-1.22 0-2.44 0.446-3.39 1.22-1.22 0.987-1.68 2.56-1.68 4.14v56c0 0.565 0.162 1.2 0.502 1.71 0.421 0.631 0.993 0.96 1.53 1.17l0.082 0.0293 0.0801 0.0293c0.44 0.132 0.907 0.212 1.43 0.281 0.00756 9.98e-4 0.0139-1e-3 0.0215 0 0.682 0.119 1.42 0.17 2.27 0.17 0.826 0 1.53-0.0455 2.19-0.162 0.579-0.0694 1.06-0.148 1.55-0.311l0.0527-0.0137 0.0508-0.0215c0.505-0.202 1.03-0.541 1.45-1.11 0.382-0.499 0.635-1.16 0.635-1.77v-20h5c0.386 0 0.746-0.0277 1.12-0.0371 0.0022 0.0049 0.0037 0.0107 0.0059 0.0156v0.0078h0.0078c1.29 2.95 3.1 5.46 5.43 7.43 2.3 1.99 5.02 3.47 8.11 4.44 3.11 0.969 6.48 1.45 10.1 1.45 0.688 0 1.35-0.034 2.02-0.0664v4.79c0 1.54 0.437 3.08 1.65 4.05l0.0449 0.0312 0.043 0.0293c0.922 0.658 2.03 1.05 3.16 1.05h15.8c2.37 0 4.49-0.157 6.38-0.494l0.0156-0.0078h0.0137c1.9-0.366 3.67-0.899 5.34-1.61l0.0156-0.0078c1.69-0.712 3.23-1.61 4.58-2.68l0.0078-0.0059c1.4-1.08 2.6-2.35 3.59-3.79 0.988-1.45 1.74-3.07 2.26-4.83v-0.0078c0.56-1.82 0.834-3.78 0.834-5.85 0-2.25-0.347-4.37-1.05-6.31-0.693-1.91-1.66-3.62-2.91-5.08-1.2-1.44-2.62-2.63-4.24-3.55-2e-3 -9.97e-4 -0.0078 1e-3 -0.0078 0-0.427-0.25-0.935-0.306-1.38-0.516 0.148-0.119 0.346-0.178 0.488-0.303l0.0156-0.0156c1.17-0.993 2.14-2.13 2.9-3.4l0.0078-0.0059c0.782-1.28 1.37-2.68 1.76-4.16 0.387-1.48 0.576-3.01 0.576-4.6 0-2.61-0.429-5.02-1.32-7.19-0.889-2.17-2.25-4.04-4.03-5.54-2e-3 -1e-3 -0.0059 9.98e-4 -0.0059 0-1.76-1.51-3.94-2.63-6.45-3.37-2.57-0.764-5.7-1.12-9.44-1.12v0.00195l-13.8 0.00195c-1.15 0-2.28 0.433-3.2 1.13-1.25 0.94-1.7 2.5-1.7 4.04v3.51c-0.937-0.0676-1.89-0.107-2.86-0.107l-0.0039-0.00195c-0.918 3.57e-5 -1.82 0.03-2.69 0.084-0.354-0.554-0.728-1.09-1.14-1.6-1.33-1.61-2.97-2.96-4.86-4.03-2e-3 -1e-3 -0.0078 1e-3 -0.0078 0-1.84-1.09-3.7-1.85-5.59-2.24-1.65-0.38-3.13-0.626-4.45-0.73-2e-3 -2.49e-4 -0.0021 2.49e-4 -0.0059 0-1.26-0.132-2.57-0.199-3.94-0.199zm6.76 10.4h5.57c1.27 0 2.58 0.105 3.93 0.311 1.21 0.181 2.37 0.597 3.52 1.29l0.0078 0.0078h0.0078c0.168 0.0993 0.325 0.223 0.486 0.34-0.923 0.566-1.79 1.2-2.59 1.9-2.2 1.92-3.88 4.33-5.01 7.14v0.0078c-1.11 2.8-1.66 6-1.68 9.55h-4.24zm43.5 0.043h6.45c2.19 0 3.89 0.226 5.02 0.576 1.18 0.368 2.04 0.869 2.67 1.47l0.0078 0.0156 0.0137 0.0078c0.645 0.599 1.1 1.31 1.42 2.23 0.329 0.962 0.51 2.08 0.51 3.38 0 1.12-0.171 2.19-0.518 3.25v0.0156l-0.0078 0.0137c-0.296 0.963-0.758 1.77-1.42 2.51-0.646 0.69-1.48 1.27-2.54 1.74-0.369 0.152-0.838 0.276-1.36 0.381-0.307-1.45-0.728-2.83-1.28-4.12-1.26-2.93-3.06-5.43-5.37-7.43l-0.0078-0.0078h-0.0078c-1.09-0.932-2.29-1.75-3.58-2.46zm-14.1 10.1h2e-3c0.813 5.1e-5 1.59 0.043 2.35 0.104v21.9c-0.824 0.0664-1.66 0.107-2.53 0.107-2.31 0-4.39-0.237-6.25-0.695-1.83-0.451-3.34-1.14-4.59-2.04-0.399-0.289-0.756-0.608-1.09-0.945 2.08-0.931 3.91-2.12 5.48-3.58l0.0078-0.0078c2.08-1.9 3.68-4.23 4.78-6.9 0.996-2.43 1.52-5.09 1.62-7.97 0.0804-5.38e-4 0.157-0.0059 0.238-0.0059zm24.6 16.1c1.15 0.114 2.16 0.292 2.97 0.537h0.0215l0.0156 0.0078c1.48 0.41 2.6 1 3.45 1.73l0.0156 0.0059 0.0078 0.0078c0.895 0.746 1.54 1.63 1.99 2.73l0.0078 0.0137 0.0059 0.0234c0.474 1.1 0.738 2.42 0.738 4.03 0 1.47-0.256 2.67-0.717 3.66-0.481 1.04-1.13 1.86-1.97 2.56-0.837 0.684-1.81 1.22-2.98 1.59-1.14 0.364-2.57 0.568-4.26 0.568h-9.82v-2.33c1.52-0.761 2.92-1.68 4.16-2.76 2.2-1.92 3.88-4.35 5.01-7.19 0.642-1.6 1.09-3.33 1.36-5.19z" style="fill:url(#Gradient)"/>
  <path id="text" d="m6.48 1.85c-2.11-0.0355-4.59 0.445-4.57 3.06-0.0359 18.7-0.00542 37.5-0.0156 56.2 0.976 2.6 6.19 2.14 8 0.559 0.137-7.39 0.0195-14.8 0.0586-22.2 2.42-0.0308 4.88 0.0409 7.33-0.0156-0.651-2.02-1.03-4.22-1.15-6.58-2.07 0.0025-4.16-0.101-6.18-0.0176v-24.3c2.04 0.0448 4.08-0.0238 6.12-0.0156 2.04 0.00813 4.08 0.0927 6.1 0.439 1.55 0.243 2.93 0.874 4.12 1.76 1.17 0.805 2.17 1.92 2.97 3.39 0.937 1.66 1.41 3.72 1.41 6.19-1.3e-5 0.121-0.0112 0.236-0.0137 0.355-1.38e-4 0.0066-0.0018 0.013-2e-3 0.0195-0.0093 0.42-0.0321 0.834-0.0723 1.24-0.0087 0.0888-0.0209 0.177-0.0312 0.266-0.0417 0.358-0.0922 0.713-0.158 1.06-0.0146 0.076-0.033 0.151-0.0488 0.227-0.0797 0.386-0.175 0.765-0.285 1.14-6e-3 0.0202-0.0114 0.0404-0.0176 0.0606-0.0699 0.232-0.133 0.468-0.215 0.695-0.0627 0.17-0.137 0.331-0.209 0.494-0.012 0.0288-0.0249 0.0572-0.0371 0.0859-0.039 0.0875-0.0736 0.179-0.113 0.266h-0.0156c-0.688 1.52-1.67 2.89-3.01 3.94-0.0417 0.457-0.0723 0.929-0.0723 1.44 0 2.02 0.362 3.67 1.03 5.03 0.157 0.32 0.326 0.625 0.51 0.914 0.182-0.0788 0.366-0.151 0.547-0.236 4.8-2 8.23-6.23 9.78-11.1h-2e-3c0.606-1.99 0.915-4.16 0.92-6.5-6.44e-4 -0.0189 7.01e-4 -0.0378 0-0.0566 5.9e-5 -0.0664-0.0047-0.133-0.0059-0.199-0.0188-2.2-0.34-4.22-0.977-6.04-0.31-0.945-0.689-1.83-1.14-2.66-0.015 0.0012-0.0299 0.0028-0.0449 0.0039-0.962-1.7-2.22-3.23-3.72-4.49-0.673-0.539-1.39-1.04-2.18-1.48-0.104-0.0615-0.207-0.111-0.311-0.17h0.125c-0.743-0.421-1.52-0.79-2.34-1.08-6.81-2.45-14.1-1.44-21.2-1.65-0.278-0.0213-0.572-0.0379-0.873-0.043zm43.5 0.145c-2.02-0.0378-4.44 0.37-4.43 2.88-0.0029 1.38-0.0022 2.77-2e-3 4.15 1.83 0.225 3.59 0.571 5.25 1.08h0.0078c0.934 0.291 1.83 0.633 2.7 1.01v-2.53c2.32 0.0751 4.66-0.0323 6.99-0.0234 2.33 0.00884 4.65 0.134 6.93 0.68 3.95 0.941 6.2 5.03 5.95 8.91 0.119 4.27-2.33 8.57-6.66 9.63-0.0669 0.0123-0.134 0.0197-0.201 0.0312-1.07 0.271-2.34 0.42-3.82 0.42h-9.19v-3.61c-0.414-0.446-0.871-0.858-1.4-1.23l-0.0078-0.0098-0.0078-0.0059c-1.25-0.908-2.78-1.61-4.62-2.09-0.617-0.151-1.26-0.272-1.93-0.373-0.0029 7.17-0.0062 14.3-0.0059 21.5 0.555-0.0828 1.1-0.178 1.64-0.293l0.0137-0.0078h0.0156c1.84-0.367 3.39-0.978 4.7-1.81 0.603-0.381 1.12-0.833 1.6-1.34v-4.32c0.0858 0.0028 0.172 0.0015 0.258 0.0039h9.4c1.42 0 2.68 0.0877 3.82 0.244v0.0527c0.823 0.109 1.64 0.253 2.46 0.449 4.71 0.984 7.88 5.65 7.59 10.4 0.286 5.07-3.71 9.36-8.63 10-4.94 0.496-9.93 0.155-14.9 0.256v-3.38c-0.586 0.228-1.18 0.441-1.8 0.627h-0.0156c-1.91 0.594-3.97 0.975-6.15 1.19 6.7e-5 0.405 2.36e-4 0.81 0 1.21 0.241 2.22-0.794 5.19 1.44 6.61 2.39 0.772 4.99 0.236 7.48 0.395 7-0.231 14.3 0.888 20.9-1.97 6.24-2.34 10.4-8.79 10.1-15.4v-2e-3c0.0374-3.65-1.13-7.37-3.52-10.2-1.56-2.77-6.82-4.27-7.91-5.09 5.78-2.51 8.41-9.3 7.41-15.3-0.477-6.2-5.72-11-11.7-12-6.28-1.14-12.7-0.522-19-0.68-0.265-0.0187-0.545-0.0337-0.834-0.0391zm-9.28 8.6c-0.536 0.0022-1.07 0.015-1.6 0.0391 0.332 0.696 0.638 1.41 0.887 2.17 9.83e-4 0.0042-1e-3 0.0115 0 0.0156 0.636 1.82 0.974 3.79 1.06 5.89 0.196-0.0046 0.392-0.0148 0.588-0.0137 1.17 0.0069 2.34 0.101 3.49 0.262 0.115 0.0142 0.232 0.0254 0.346 0.041 0.0266 0.0041 0.0535 0.0056 0.0801 0.0098-1e-6 0.0013 0 0.0026 0 0.0039 0.828 0.116 1.63 0.267 2.4 0.457 2.03 0.531 3.78 1.33 5.25 2.39 0.108 0.0762 0.201 0.163 0.305 0.242v-0.0527c0.24 0.182 0.452 0.388 0.672 0.588 0.253 0.23 0.492 0.471 0.719 0.723 0.109 0.118 0.215 0.24 0.318 0.363 0.125 0.152 0.249 0.304 0.365 0.463 0.317 0.422 0.615 0.86 0.873 1.33h-0.0488c0.147 0.277 0.298 0.551 0.424 0.84h5.86c0.375 0 0.718-0.0182 1.06-0.0371-0.408-1.76-1.02-3.47-1.85-5.07-0.0672-0.127-0.134-0.256-0.203-0.381-0.252-0.462-0.518-0.918-0.809-1.36-0.111-0.165-0.228-0.324-0.344-0.484-0.0889-0.124-0.176-0.25-0.268-0.371-0.129-0.17-0.262-0.336-0.396-0.5-0.106-0.129-0.214-0.256-0.322-0.381-0.121-0.14-0.24-0.28-0.365-0.416-0.239-0.258-0.481-0.509-0.732-0.75-0.57-0.545-1.17-1.05-1.8-1.51-0.0384-0.0281-0.0785-0.0542-0.117-0.082-0.295-0.212-0.594-0.418-0.9-0.613-0.0087-0.0055-0.0167-0.012-0.0254-0.0176-0.0072-0.0046-0.0143-0.0091-0.0215-0.0137-0.67-0.424-1.36-0.808-2.08-1.15v-0.0078c-1.02-0.496-2.11-0.926-3.26-1.29-2.33-0.709-4.85-1.12-7.55-1.25v-0.0176c-0.67-0.0338-1.34-0.0555-2-0.0527zm-13.9 3.19c-2.96 1.71-5.44 4.15-6.86 7.41-1.15 2.73-1.81 5.69-1.96 8.68h0.0606c-0.0185 0.451-0.0527 0.89-0.0527 1.36 0 3.05 0.432 5.76 1.28 8.17 0.0136-8.09e-4 0.0274-0.0011 0.041-2e-3 0.321 0.918 0.697 1.82 1.13 2.69 3.74 7.32 12.2 10.6 20 10.7v-0.0371c0.38 0.0115 0.752 0.0391 1.14 0.0391 0.754 0 1.48-0.0304 2.2-0.0703 0.399-0.024 0.799-0.0576 1.2-0.0938 2.19-0.195 4.24-0.566 6.12-1.15 0.827-0.248 1.61-0.539 2.37-0.863v-0.0059c2.44-1.09 4.64-2.63 6.38-4.59 0.0772-0.09 0.161-0.174 0.236-0.266v0.0078c1.14-1.34 2.06-2.87 2.68-4.6 0.524-1.48 0.918-3.02 1.18-4.59-0.281-8e-3 -0.535-0.0293-0.832-0.0293h-6.04c-0.0885 0.264-0.168 0.532-0.273 0.787-0.448 1.03-1.05 1.9-1.74 2.66-0.636 0.736-1.35 1.38-2.19 1.91-1.53 0.969-3.31 1.66-5.35 2.06-0.663 0.143-1.34 0.253-2.03 0.35 2e-6 0.0085 1e-6 0.0169 0 0.0254-0.261 0.035-0.52 0.0482-0.781 0.0762-0.268 0.0301-0.539 0.0548-0.811 0.0781-0.325 0.0264-0.647 0.0556-0.969 0.0723-0.51 0.0281-1.03 0.0421-1.55 0.0469-0.106 9.43e-4 -0.217 0.0097-0.322 0.0098-0.108-2.04e-4 -0.216-0.0086-0.324-0.0098-0.0989-0.0033-0.199-0.0058-0.299-0.0078v-2e-3c-2.55-0.0476-5.12-0.353-7.55-1.16-2.25-0.62-4.17-1.95-5.62-3.68h-0.0625c-0.592-0.695-1.1-1.47-1.52-2.32-0.812-1.66-1.22-3.61-1.22-5.86 0-0.0767 0.0089-0.145 0.0098-0.221-0.0047 0.0023-9e-3 0.0055-0.0137 0.0078 0.0053-0.0821 0.0026-0.164 0.0098-0.246-0.159-3.56 1.51-6.95 4.19-9.16 0.0637-0.541 0.107-1.09 0.107-1.67 0-2.23-0.427-3.95-1.17-5.26v-0.0137l-0.0078-0.0078c-0.258-0.472-0.536-0.876-0.824-1.25z" style="fill:#000000"/>
 </g>
 <text x="146.70941" y="62.706047" style="fill:#000000;font-family:Calibri;font-size:89.5px;letter-spacing:-3.61px;line-height:1;paint-order:markers stroke fill;stroke-width:3.6;stroke:url(#Gradient);text-align:center;text-anchor:middle;word-spacing:0px" xml:space="preserve"><tspan x="145.90587" y="62.706047" style="font-family:Calibri;letter-spacing:-3.61px;paint-order:markers stroke fill;stroke-width:3.6;stroke:url(#Gradient)">link</tspan></text>
</svg>
