<?xml version="1.0" encoding="UTF-8" standalone="no"?>
<svg xmlns="http://www.w3.org/2000/svg" version="1.1" id="poblogo"    height="64.715073"
width="87.379028">

  <path d="M 5.0762,0 C 3.8518,0 2.6344,0.44558 1.6817,1.2168 0.4621,2.20413 -0.0019,3.7785 -0.0019,5.3594 v 55.967 c 0,0.56496 0.16176,1.195 0.50195,1.7051 0.42066,0.63099 0.99299,0.96006 1.5273,1.1738 l 0.082031,0.0293 0.080078,0.0293 c 0.44032,0.13206 0.90722,0.21242 1.4336,0.28125 0.00756,9.98e-4 0.013926,-0.001 0.021484,0 0.68205,0.11875 1.4248,0.16992 2.2734,0.16992 0.82613,0 1.5301,-0.04551 2.1855,-0.16211 0.5794,-0.06939 1.0622,-0.14833 1.5488,-0.31055 l 0.052734,-0.01367 0.050781,-0.02148 c 0.50525,-0.20213 1.0345,-0.54125 1.4473,-1.1074 0.38211,-0.49886 0.63477,-1.1612 0.63477,-1.7715 v -19.955 h 4.998 c 0.38603,0 0.74633,-0.02767 1.123,-0.03711 0.0022,0.0049 0.0037,0.01072 0.0059,0.01562 v 0.0078 h 0.0078 c 1.29,2.9534 3.1048,5.4592 5.4258,7.4336 2.297,1.9853 5.0227,3.4699 8.1113,4.4434 3.1084,0.9693 6.4802,1.4473 10.084,1.4473 0.68806,0 1.3523,-0.03402 2.0176,-0.06641 v 4.7871 c 0,1.5418 0.43662,3.0848 1.6465,4.0527 l 0.04492,0.03125 0.04297,0.0293 c 0.92179,0.65839 2.0306,1.0547 3.1602,1.0547 h 15.842 c 2.3675,0 4.4872,-0.15666 6.377,-0.49414 l 0.01563,-0.0078 h 0.01367 c 1.8965,-0.36597 3.6748,-0.89875 5.3359,-1.6094 l 0.01563,-0.0078 c 1.6921,-0.71221 3.2294,-1.606 4.584,-2.6797 l 0.0078,-0.0059 c 1.3965,-1.0837 2.6036,-2.3535 3.5879,-3.7949 0.98786,-1.4465 1.7382,-3.0696 2.2578,-4.8281 v -0.0078 c 0.55967,-1.8216 0.83398,-3.7767 0.83398,-5.8457 0,-2.2534 -0.34658,-4.3657 -1.0547,-6.3125 -0.69328,-1.9065 -1.662,-3.6163 -2.9082,-5.0781 -1.196,-1.4383 -2.6196,-2.6322 -4.2383,-3.5508 -0.002,-9.97e-4 -0.0078,0.001 -0.0078,0 -0.42697,-0.25036 -0.93544,-0.30628 -1.3809,-0.51562 0.14778,-0.11853 0.34579,-0.1785 0.48828,-0.30273 l 0.01563,-0.01563 c 1.1667,-0.99281 2.1401,-2.1284 2.9023,-3.3965 l 0.0078,-0.0059 c 0.7824,-1.2822 1.3682,-2.6761 1.7559,-4.1562 0.38661,-1.4761 0.57617,-3.0114 0.57617,-4.5996 0,-2.6108 -0.42935,-5.0249 -1.3164,-7.1895 -0.88854,-2.1678 -2.2484,-4.0444 -4.0293,-5.5449 -0.002,-9.997e-4 -0.0059,9.978e-4 -0.0059,0 -1.7629,-1.5104 -3.9371,-2.6251 -6.4531,-3.373 -2.5711,-0.76437 -5.697,-1.1152 -9.4414,-1.1152 v 0.001953 l -13.781,0.001953 c -1.1514,0 -2.277,0.43328 -3.1953,1.1289 -1.2539,0.94042 -1.6992,2.5032 -1.6992,4.0449 v 3.5117 c -0.93746,-0.067647 -1.8892,-0.10738 -2.8633,-0.10742 l -0.0039,-0.00195 c -0.91775,3.57e-5 -1.8153,0.030006 -2.6914,0.083981 -0.35371,-0.55384 -0.72819,-1.0918 -1.1445,-1.5957 -1.3321,-1.6125 -2.9666,-2.9586 -4.8574,-4.0293 -0.002,-10e-4 -0.0078,10e-4 -0.0078,0 -1.8371,-1.0878 -3.7017,-1.8527 -5.5879,-2.2441 -1.6531,-0.37965 -3.1292,-0.62578 -4.4512,-0.73047 -0.002,-2.4945e-4 -0.0021,2.4945e-4 -0.0059,0 -1.2574,-0.13209 -2.5675,-0.19922 -3.9375,-0.19922 z m 6.7617,10.438 h 5.5664 c 1.2748,0 2.5846,0.10528 3.9336,0.31055 1.2146,0.18089 2.3744,0.5974 3.5215,1.291 l 0.0078,0.0078 h 0.0078 c 0.16807,0.09931 0.32543,0.22275 0.48633,0.33984 -0.92332,0.56612 -1.7881,1.1987 -2.5918,1.9004 -2.1961,1.9172 -3.8798,4.3256 -5.0117,7.1387 v 0.0078 c -1.1126,2.7985 -1.6558,5.9971 -1.6797,9.5547 h -4.2422 z m 43.525,0.04297 h 6.4531 c 2.1933,0 3.8936,0.22596 5.0195,0.57617 1.1834,0.36816 2.0435,0.86871 2.6719,1.4746 l 0.0078,0.01563 0.01367,0.0078 c 0.64547,0.59935 1.1035,1.3093 1.418,2.2285 0.3292,0.96174 0.50976,2.0805 0.50976,3.375 0,1.1175 -0.17121,2.1888 -0.51758,3.2539 v 0.01563 l -0.0078,0.01367 c -0.29632,0.96265 -0.75758,1.7747 -1.416,2.5098 -0.64573,0.69037 -1.478,1.2726 -2.541,1.7422 -0.36941,0.15184 -0.83775,0.27578 -1.3594,0.38086 -0.30682,-1.4518 -0.72759,-2.8296 -1.2832,-4.1211 -1.259,-2.9262 -3.0601,-5.4312 -5.373,-7.4336 l -0.0078,-0.0078 h -0.0078 c -1.0947,-0.93152 -2.2925,-1.7496 -3.5801,-2.459 z m -14.104,10.119 h 0.002 c 0.8126,5.1e-5 1.5899,0.04301 2.3496,0.10352 v 21.936 c -0.82396,0.06641 -1.6643,0.10742 -2.5332,0.10742 -2.3083,0 -4.3929,-0.23724 -6.2539,-0.69531 -1.8322,-0.451 -3.3422,-1.1424 -4.5898,-2.0449 -0.39921,-0.28879 -0.75601,-0.6084 -1.0938,-0.94531 2.0778,-0.9311 3.9145,-2.1218 5.4785,-3.5781 l 0.0078,-0.0078 c 2.076,-1.905 3.6785,-4.2287 4.7754,-6.9023 0.9955,-2.4265 1.5238,-5.0927 1.6191,-7.9668 0.08035,-5.38e-4 0.15748,-0.0059 0.23828,-0.0059 z m 24.633,16.08 c 1.1541,0.11368 2.1621,0.29236 2.9727,0.53711 h 0.02148 l 0.01563,0.0078 c 1.4759,0.40997 2.6,1.0022 3.4473,1.7285 l 0.01563,0.0059 0.0078,0.0078 c 0.89495,0.74578 1.5418,1.6268 1.9941,2.7324 l 0.0078,0.01367 0.0059,0.02344 c 0.47395,1.0976 0.73828,2.4231 0.73828,4.0293 0,1.4659 -0.25621,2.6681 -0.7168,3.6621 -0.48106,1.0381 -1.1265,1.8642 -1.9707,2.5605 -0.83656,0.68447 -1.8118,1.2154 -2.9824,1.5879 -1.1424,0.36352 -2.5654,0.56836 -4.2598,0.56836 h -9.8242 v -2.3262 c 1.5247,-0.76104 2.9192,-1.6765 4.1602,-2.7598 2.1978,-1.9187 3.875,-4.3495 5.0059,-7.1895 0.64221,-1.5958 1.0884,-3.3306 1.3613,-5.1895 z" id="stroke" style="fill:url(#Gradient);"/>
  <path style="" d="M 6.4766,1.8496 C 4.3665,1.814052 1.8868,2.29461 1.9024,4.9101 c -0.035906,18.737 -0.00542,37.475 -0.015625,56.213 0.9755,2.5956 6.1871,2.1378 8.0039,0.55859 0.13671,-7.3886 0.019502,-14.798 0.058594,-22.195 2.4198,-0.03079 4.8817,0.04086 7.3301,-0.01563 -0.65132,-2.0247 -1.0286,-4.2215 -1.1504,-6.5781 -2.0746,0.0025 -4.165,-0.10136 -6.1797,-0.01758 v -24.326 c 2.037,0.044844 4.082,-0.023751 6.123,-0.015625 2.0411,0.00813 4.0774,0.092682 6.0957,0.43945 1.5463,0.24294 2.9335,0.87389 4.123,1.7637 1.1706,0.80505 2.168,1.9216 2.9707,3.3887 0.93725,1.6558 1.406,3.7197 1.4062,6.1875 -1.3e-5,0.12068 -0.01116,0.2359 -0.01367,0.35547 -1.38e-4,0.0066 -0.0018,0.01295 -0.002,0.01953 -0.0093,0.42031 -0.03212,0.83362 -0.07227,1.2402 -0.0087,0.08878 -0.02093,0.17693 -0.03125,0.26562 -0.04166,0.3583 -0.09222,0.71305 -0.1582,1.0605 -0.01458,0.07601 -0.03302,0.1508 -0.04883,0.22656 -0.07966,0.38552 -0.17516,0.76468 -0.28516,1.1367 -0.006,0.0202 -0.01144,0.04038 -0.01758,0.06055 -0.06989,0.23244 -0.13306,0.46816 -0.21484,0.69531 -0.06267,0.17032 -0.1373,0.33092 -0.20898,0.49414 -0.01197,0.02885 -0.02492,0.05718 -0.03711,0.08594 -0.03903,0.08751 -0.07361,0.17859 -0.11328,0.26562 h -0.01563 c -0.6885,1.5213 -1.6736,2.8932 -3.0059,3.9395 -0.04166,0.45667 -0.07227,0.92935 -0.07227,1.4395 0,2.0227 0.36189,3.6749 1.0254,5.0273 0.157,0.32004 0.32552,0.62502 0.50977,0.91406 0.18238,-0.07879 0.36594,-0.15087 0.54688,-0.23633 4.7975,-1.9964 8.229,-6.2294 9.7812,-11.084 h -0.002 c 0.60609,-1.9901 0.91474,-4.1568 0.91992,-6.5039 -6.44e-4,-0.01887 7.01e-4,-0.03777 0,-0.05664 5.9e-5,-0.06642 -0.0047,-0.1328 -0.0059,-0.19922 -0.01877,-2.2025 -0.33966,-4.2174 -0.97656,-6.0371 -0.30967,-0.94455 -0.68898,-1.8307 -1.1367,-2.6602 -0.01499,0.0012 -0.02993,0.0028 -0.04492,0.0039 -0.96216,-1.7039 -2.2242,-3.2306 -3.7186,-4.4922 -0.67306,-0.53897 -1.3943,-1.035 -2.1777,-1.4766 -0.10394,-0.061493 -0.20699,-0.11092 -0.31055,-0.16992 h 0.125 c -0.74302,-0.42125 -1.5194,-0.79 -2.3359,-1.082 -6.8133,-2.4468 -14.135,-1.4351 -21.221,-1.6523 C 7.071269,1.87175 6.777629,1.855205 6.476189,1.850126 Z m 43.469,0.14453 c -2.0224,-0.037849 -4.4363,0.36989 -4.4277,2.8809 -0.0029,1.3847 -0.0022,2.7695 -0.002,4.1543 1.8265,0.22471 3.5854,0.5709 5.252,1.0781 h 0.0078 c 0.9345,0.29141 1.832,0.63329 2.6973,1.0137 v -2.5273 c 2.3206,0.075061 4.6631,-0.032283 6.9941,-0.023437 2.3311,0.00884 4.6508,0.13392 6.9277,0.67969 3.9533,0.94148 6.2005,5.0322 5.9531,8.9062 0.11943,4.2678 -2.333,8.568 -6.6621,9.6309 -0.0669,0.01229 -0.1342,0.01967 -0.20117,0.03125 -1.0749,0.27051 -2.3357,0.41992 -3.8242,0.41992 h -9.1875 v -3.6113 c -0.41351,-0.44637 -0.87135,-0.85849 -1.3965,-1.2305 l -0.0078,-0.0098 -0.0078,-0.0059 c -1.2549,-0.90769 -2.7804,-1.6084 -4.6211,-2.0898 -0.61705,-0.15102 -1.2629,-0.27153 -1.9258,-0.37305 -0.0029,7.1685 -0.0062,14.337 -0.0059,21.506 0.55512,-0.08285 1.1027,-0.17794 1.6367,-0.29297 l 0.01367,-0.0078 h 0.01563 c 1.8373,-0.36748 3.3881,-0.97789 4.7012,-1.8086 0.60276,-0.38136 1.1241,-0.83283 1.5977,-1.3379 v -4.3203 c 0.08581,0.0028 0.17196,0.0015 0.25781,0.0039 h 9.4004 c 1.416,0 2.6801,0.08767 3.8223,0.24414 v 0.05273 c 0.82298,0.10935 1.6429,0.25295 2.457,0.44922 4.7051,0.98381 7.8782,5.6516 7.5938,10.359 0.28611,5.0702 -3.7137,9.3589 -8.6309,10.01 -4.9436,0.49629 -9.9345,0.1554 -14.9,0.25586 v -3.3809 c -0.58649,0.2278 -1.1839,0.44066 -1.8027,0.62695 h -0.01563 c -1.9124,0.59385 -3.9734,0.97493 -6.1504,1.1914 6.7e-5,0.40495 2.36e-4,0.8099 0,1.2148 0.24083,2.2205 -0.79437,5.1869 1.4355,6.6094 2.3864,0.77216 4.9906,0.23558 7.4766,0.39453 7.0042,-0.23089 14.322,0.88789 20.947,-1.9688 6.2401,-2.3382 10.38,-8.7921 10.125,-15.42 v -0.002 c 0.03742,-3.6549 -1.1257,-7.3697 -3.5156,-10.17 -1.5579,-2.7677 -6.8159,-4.2735 -7.9062,-5.0938 5.7762,-2.5145 8.4149,-9.3044 7.4141,-15.273 -0.47652,-6.1956 -5.7246,-11.001 -11.658,-12.047 -6.2801,-1.1361 -12.696,-0.52185 -19.043,-0.67969 C 50.51526,2.014431 50.23493,1.999517 49.94603,1.994111 Z m -9.2812,8.5977 c -0.53607,0.0022 -1.0695,0.01498 -1.5996,0.03906 0.33208,0.69634 0.63799,1.4127 0.88672,2.166 9.83e-4,0.0042 -0.001,0.01147 0,0.01563 0.63556,1.8207 0.97415,3.7939 1.0566,5.8887 0.19589,-0.0046 0.39194,-0.01483 0.58789,-0.01367 1.1718,0.0069 2.3384,0.10137 3.4922,0.26172 0.11473,0.01422 0.23199,0.02544 0.3457,0.04102 0.02655,0.0041 0.05354,0.0056 0.08008,0.0098 -10e-7,0.0013 0,0.0026 0,0.0039 0.8282,0.11607 1.6317,0.26685 2.4043,0.45703 2.0314,0.53125 3.7813,1.3281 5.25,2.3906 0.10753,0.07617 0.20085,0.163 0.30469,0.24219 v -0.05273 c 0.23961,0.18185 0.45228,0.38798 0.67188,0.58789 0.25283,0.23017 0.49225,0.47066 0.71875,0.72266 0.10916,0.11842 0.21486,0.24024 0.31836,0.36328 0.1247,0.15239 0.24938,0.30406 0.36523,0.46289 0.3171,0.42192 0.61482,0.85998 0.87305,1.3301 h -0.04883 c 0.14736,0.27674 0.29848,0.55123 0.42383,0.83984 h 5.8613 c 0.3752,0 0.71794,-0.0182 1.0566,-0.03711 -0.4084,-1.7612 -1.0218,-3.4662 -1.8516,-5.0723 -0.06721,-0.12729 -0.13355,-0.25578 -0.20312,-0.38086 -0.25167,-0.4622 -0.51823,-0.9185 -0.80859,-1.3613 -0.11079,-0.16514 -0.2282,-0.32367 -0.34375,-0.48438 -0.08893,-0.12414 -0.17594,-0.25013 -0.26758,-0.37109 -0.12852,-0.16954 -0.26242,-0.33564 -0.39648,-0.5 -0.1056,-0.12905 -0.21353,-0.25563 -0.32227,-0.38086 -0.12068,-0.13975 -0.24033,-0.28021 -0.36523,-0.41602 -0.23857,-0.2575 -0.48067,-0.50931 -0.73242,-0.75 -0.56954,-0.54453 -1.1725,-1.0461 -1.8027,-1.5078 -0.03842,-0.02814 -0.07853,-0.05415 -0.11719,-0.08203 -0.29463,-0.21238 -0.59424,-0.41806 -0.90039,-0.61328 -0.0087,-0.0055 -0.01671,-0.01204 -0.02539,-0.01758 -0.0072,-0.0046 -0.01431,-0.0091 -0.02148,-0.01367 -0.66971,-0.42435 -1.3648,-0.80831 -2.082,-1.1543 v -0.0078 c -1.0232,-0.4959 -2.1073,-0.92638 -3.2578,-1.2852 -2.3282,-0.70855 -4.85,-1.1152 -7.5469,-1.25 v -0.01758 c -0.66986,-0.03382 -1.3386,-0.05551 -2.0039,-0.05273 z m -13.883,3.1934 c -2.9629,1.7124 -5.4403,4.1531 -6.8613,7.4062 -1.1478,2.7258 -1.8113,5.688 -1.9648,8.6777 h 0.06055 c -0.01852,0.45131 -0.05273,0.89024 -0.05273,1.3574 0,3.0459 0.43176,5.7641 1.2773,8.1699 0.01363,-8.09e-4 0.02739,-0.0011 0.04102,-0.002 0.32134,0.91796 0.69658,1.8169 1.1348,2.6855 3.7393,7.3159 12.168,10.573 20.035,10.705 v -0.03711 c 0.38014,0.01153 0.7518,0.03906 1.1387,0.03906 0.75383,0 1.482,-0.03044 2.2031,-0.07031 0.39944,-0.02395 0.79864,-0.05761 1.1973,-0.09375 2.1927,-0.19457 4.2415,-0.56551 6.1152,-1.1484 0.82734,-0.24819 1.6129,-0.53939 2.3672,-0.86328 v -0.0059 c 2.4356,-1.0882 4.6422,-2.6267 6.3848,-4.5879 0.07718,-0.08996 0.16096,-0.174 0.23633,-0.26562 v 0.0078 c 1.1377,-1.3388 2.0632,-2.8657 2.6836,-4.5957 0.52444,-1.4764 0.91759,-3.0173 1.1836,-4.5859 -0.28085,-0.008 -0.53503,-0.0293 -0.83203,-0.0293 h -6.041 c -0.08853,0.26375 -0.16825,0.53168 -0.27344,0.78711 -0.44764,1.0273 -1.0472,1.8982 -1.7383,2.6641 -0.63557,0.73629 -1.3549,1.3841 -2.1895,1.9121 -1.5315,0.96873 -3.3144,1.6562 -5.3457,2.0625 -0.66291,0.14278 -1.3436,0.25342 -2.0332,0.34961 2e-6,0.0085 10e-7,0.01693 0,0.02539 -0.26128,0.03502 -0.52016,0.04821 -0.78125,0.07617 -0.26798,0.03013 -0.53866,0.05483 -0.81055,0.07813 -0.32507,0.02635 -0.64704,0.05555 -0.96875,0.07227 -0.50986,0.02807 -1.0276,0.04206 -1.5508,0.04687 -0.10581,9.43e-4 -0.21731,0.0097 -0.32226,0.0098 -0.1079,-2.04e-4 -0.21624,-0.0086 -0.32422,-0.0098 -0.09891,-0.0033 -0.19858,-0.0058 -0.29883,-0.0078 v -0.002 c -2.5543,-0.04755 -5.1202,-0.3531 -7.5508,-1.1582 -2.2458,-0.62028 -4.1709,-1.9469 -5.6191,-3.6758 h -0.0625 c -0.59221,-0.69528 -1.1013,-1.4657 -1.5195,-2.3184 -0.81248,-1.6562 -1.2188,-3.6094 -1.2188,-5.8594 0,-0.07672 0.0089,-0.14482 0.0098,-0.2207 -0.0047,0.0023 -0.009,0.0055 -0.01367,0.0078 0.0053,-0.08212 0.0026,-0.16393 0.0098,-0.24609 -0.15914,-3.5647 1.5102,-6.9521 4.1855,-9.1582 0.06366,-0.54096 0.10742,-1.0926 0.10742,-1.6719 0,-2.2295 -0.42678,-3.9499 -1.166,-5.2559 v -0.01367 l -0.0078,-0.0078 c -0.25841,-0.47227 -0.5362,-0.87587 -0.82422,-1.25 z" id="text"/>
 <defs>
        <linearGradient id="Gradient" x1="100%" y1="100%">
          <stop offset="0%" stop-color="lightblue" stop-opacity=".5">
            <animate attributeName="stop-color" values="lightblue;blue;red;red;white;red;red;purple;lightblue" dur="14s" repeatCount="indefinite"/>
          </stop>
          <stop offset="100%" stop-color="lightblue" stop-opacity=".5">
            <animate attributeName="stop-color" values="lightblue;orange;purple;purple;white;purple;purple;blue;lightblue" dur="14s" repeatCount="indefinite"/>
            <!-- .80;.60;.40;.20;0;.20;.40;.60;.80 -->
            <animate attributeName="offset" values=".60;.50;.60" dur="14s" repeatCount="indefinite"/>
          </stop>
        </linearGradient>
</defs>
<style xmlns="http://www.w3.org/1999/xhtml" type="text/css"></style></svg>
